<?xml version="1.0" standalone="no"?><!DOCTYPE svg PUBLIC "-//W3C//DTD SVG 1.1//EN" "http://www.w3.org/Graphics/SVG/1.1/DTD/svg11.dtd"><svg t="1756202454102" class="icon" viewBox="0 0 1024 1024" version="1.1" xmlns="http://www.w3.org/2000/svg" p-id="14761" xmlns:xlink="http://www.w3.org/1999/xlink" width="128" height="128"><path d="M261.12 624.64l78.848-6.656c3.584 31.744 12.288 57.344 26.112 77.824 13.824 19.968 34.816 36.352 63.488 49.152 28.672 12.288 60.928 18.944 96.768 18.944 31.744 0 59.904-4.608 84.48-14.336 24.576-9.216 42.496-22.528 54.272-38.912 11.776-16.384 17.92-34.304 17.92-53.76 0-19.968-5.632-36.864-17.408-51.712-11.264-14.848-30.208-27.136-56.832-37.376-16.896-6.656-54.272-16.896-112.128-30.72s-98.304-27.136-121.856-39.424c-30.208-16.384-52.736-35.84-67.584-59.392-14.848-23.552-22.016-49.664-22.016-78.336 0-31.744 9.216-61.44 27.136-89.088 17.92-27.648 44.544-48.64 79.36-62.976 34.816-14.336 73.216-21.504 115.712-21.504 46.592 0 88.064 7.68 123.392 22.528 35.84 14.848 62.976 37.376 82.432 66.56 18.944 29.184 29.696 62.464 30.72 99.328l-79.872 6.144c-4.096-39.936-18.944-70.144-43.52-90.112-24.576-20.48-61.44-30.72-110.08-30.72-50.688 0-87.04 9.216-110.08 27.648-23.04 18.432-34.816 40.96-34.816 67.072 0 22.528 8.192 41.472 24.576 55.808C406.016 425.472 448 440.32 516.096 455.68c67.584 15.36 114.176 28.672 139.776 40.448 36.864 16.896 64 38.4 81.408 64.512 17.408 26.112 26.112 55.808 26.112 89.6 0 33.28-9.728 65.024-28.672 94.72-19.456 29.696-46.592 52.736-82.944 69.12-35.84 16.384-76.288 24.576-121.344 24.576-56.832 0-104.96-8.192-143.36-25.088-38.4-16.384-68.608-41.472-90.624-75.264-22.528-33.792-34.304-71.68-35.328-113.664z" fill="#00B19D" p-id="14762"></path><path d="M467.456 153.6h89.6v716.8h-89.6z" fill="#00B19D" p-id="14763"></path></svg>